<?xml version="1.0" encoding="UTF-8" standalone="no"?>
<!DOCTYPE svg PUBLIC "-//W3C//DTD SVG 1.1//EN" "http://www.w3.org/Graphics/SVG/1.1/DTD/svg11.dtd">
<svg width="100%" height="100%" viewBox="0 0 500 500" version="1.1" xmlns="http://www.w3.org/2000/svg" xmlns:xlink="http://www.w3.org/1999/xlink" xml:space="preserve" xmlns:serif="http://www.serif.com/" style="fill-rule:evenodd;clip-rule:evenodd;stroke-linejoin:round;stroke-miterlimit:2;">
    <path d="M249.992,0C111.924,0 0,111.939 0,250.007C0,388.076 111.924,500 249.992,500C388.076,500 500,388.076 500,250.007C500,111.939 388.076,0 249.992,0Z" style="fill:rgb(20,33,61);"/>
    <g transform="matrix(0.95,0,0,0.95,12.5,12.5)">
        <path d="M249.992,0C111.924,0 0,111.939 0,250.007C0,388.076 111.924,500 249.992,500C388.076,500 500,388.076 500,250.007C500,111.939 388.076,0 249.992,0Z" style="fill:rgb(229,229,229);"/>
    </g>
    <g transform="matrix(0.9,0,0,0.9,24.9999,24.9999)">
        <path d="M249.992,0C111.924,0 0,111.939 0,250.007C0,388.076 111.924,500 249.992,500C388.076,500 500,388.076 500,250.007C500,111.939 388.076,0 249.992,0Z" style="fill:rgb(20,33,61);"/>
    </g>
    <g transform="matrix(13.5603,0,0,13.5801,-2622.79,-2170.85)">
        <path d="M219.93,169.591C218.938,168.599 217.536,168.224 216.18,168.587L202.456,172.264C201.101,172.627 200.075,173.653 199.712,175.009C199.348,176.364 199.724,177.766 200.716,178.759L200.848,178.89L207.37,182.152L210.631,188.673L210.763,188.805C211.506,189.549 212.479,189.946 213.49,189.946C213.829,189.946 214.172,189.901 214.513,189.81C215.868,189.447 216.894,188.42 217.257,187.065L220.935,173.341C221.298,171.985 220.922,170.584 219.93,169.591Z" style="fill:rgb(229,229,229);"/>
    </g>
    <g transform="matrix(13.5603,0,0,13.5801,-2622.79,-2170.85)">
        <path d="M215.035,186.47C214.887,187.022 214.469,187.44 213.917,187.588C213.417,187.723 212.903,187.609 212.51,187.288L209.627,181.521L218.761,172.387C218.756,172.506 218.745,172.627 218.713,172.746L215.035,186.47Z" style="fill:rgb(252,163,17);"/>
    </g>
    <g transform="matrix(13.5603,0,0,13.5801,-2622.79,-2170.85)">
        <path d="M201.933,175.604C202.082,175.052 202.5,174.634 203.052,174.486L216.776,170.809L216.776,170.808C216.895,170.776 217.015,170.765 217.134,170.761L208,179.895L202.234,177.011C201.912,176.618 201.799,176.104 201.933,175.604Z" style="fill:rgb(252,163,17);"/>
    </g>
</svg>
